<?xml version="1.0" encoding="iso-8859-1"?>
<!-- Generator: Adobe Illustrator 19.0.0, SVG Export Plug-In . SVG Version: 6.00 Build 0)  -->
<svg version="1.1" id="Layer_1" xmlns="http://www.w3.org/2000/svg" xmlns:xlink="http://www.w3.org/1999/xlink" x="0px" y="0px"
	 viewBox="0 0 512 512" style="enable-background:new 0 0 512 512;" xml:space="preserve">
<g>
	<path style="fill:#666666;" d="M512,256c0,141.383-114.617,256-256,256S0,397.383,0,256S114.617,0,256,0S512,114.617,512,256"/>
	<path style="fill:#B3B3B3;" d="M441.379,256c0,102.382-82.997,185.379-185.379,185.379S70.621,358.382,70.621,256
		S153.618,70.621,256,70.621S441.379,153.618,441.379,256"/>
	<g>
		<path style="fill:#484848;" d="M273.655,211.862l22.784-136.686c-13.038-2.904-26.536-4.555-40.439-4.555
			c-13.903,0-27.401,1.651-40.439,4.555l22.784,136.686H273.655z"/>
		<path style="fill:#484848;" d="M300.138,256c0,3.31-0.433,6.515-1.121,9.613l137.763-50.22
			c-6.312-28.213-18.997-54.007-36.564-75.75l-111.484,86.987C295.751,234.452,300.138,244.674,300.138,256"/>
		<path style="fill:#484848;" d="M292.507,280.79c-7.945,11.67-21.327,19.35-36.502,19.35c-0.141,0-0.265-0.044-0.406-0.044
			l88.947,118.793c24.09-13.118,44.782-31.541,60.902-53.53L292.507,280.79z"/>
		<path style="fill:#484848;" d="M217.742,277.623l-113.337,84.86c15.466,21.99,35.584,40.395,58.933,53.91l87.446-116.78
			C236.545,297.918,224.504,289.549,217.742,277.623"/>
		<path style="fill:#484848;" d="M211.862,256c0-11.494,4.502-21.875,11.705-29.722l-111.51-87.005
			c-17.655,21.751-30.402,47.598-36.776,75.873l137.604,50.158C212.242,262.303,211.862,259.196,211.862,256"/>
	</g>
	<path style="fill:#666666;" d="M292.507,280.79l56.479,42.284c13.639-18.882,21.778-42.002,21.778-67.072
		c0-5.473-0.477-10.831-1.218-16.093l-70.524,25.706c0.689-3.107,1.121-6.303,1.121-9.613c0-11.335-4.396-21.557-11.414-29.369
		l55.746-43.494c-15.175-18.353-35.911-31.956-59.683-38.109l-11.132,66.834h-35.31l-11.14-66.834
		c-23.614,6.109-44.226,19.58-59.383,37.756l55.737,43.485c-7.203,7.857-11.697,18.229-11.697,29.731
		c0,3.196,0.371,6.294,1.015,9.304l-70.391-25.662c-0.759,5.35-1.245,10.787-1.245,16.358c0,23.781,7.239,45.877,19.624,64.203
		l56.876-42.584c6.753,11.926,18.803,20.295,33.033,21.99l-44.641,59.63c15.095,7.3,31.965,11.52,49.867,11.52
		c16.154,0,31.514-3.381,45.462-9.41l-45.868-61.255c0.141,0,0.265,0.044,0.406,0.044
		C271.179,300.141,284.562,292.461,292.507,280.79"/>
	<path style="fill:#B3B3B3;" d="M308.966,256c0,29.255-23.711,52.966-52.966,52.966S203.034,285.255,203.034,256
		s23.711-52.966,52.966-52.966S308.966,226.745,308.966,256"/>
</g>
<g>
</g>
<g>
</g>
<g>
</g>
<g>
</g>
<g>
</g>
<g>
</g>
<g>
</g>
<g>
</g>
<g>
</g>
<g>
</g>
<g>
</g>
<g>
</g>
<g>
</g>
<g>
</g>
<g>
</g>
</svg>
